<?xml version="1.0" encoding="UTF-8"?>
<svg version="1.1" viewBox="0 0 2000 2000" width="500" height="500" xmlns="http://www.w3.org/2000/svg">
<path transform="translate(678,860)" d="m0 0 6 1 30 13 60 27 36 16 40 18 14 6 11 3 16 1 18-3 38-15 24-7 20-3h10l10 1 1 2-36 12-25 9-13 7-10 8-9 10-9 14-15 25-6 13-2 13 3 9 6 7 9 4 13 2h10l19-5 12-5 14-10 9-9 12-9 12-4 12-2h20l8 3 7 8 8 10 11 11 7 8 11 12 9 10 7 8 14 15 16 16 7 8 9 9 7 8 8 8 3 5-1 7-6 9-3 3-6 1h-8l-9-5-8-7-7-8-9-9-7-8-7-7-7-8-10-10-7-8-6-5-4-2-4 1 7 8 14 15 11 12 7 8 9 10 11 12 5 10v12l-4 8-4 5-7 4-3 1h-10l-10-5-10-9-39-39-5-2-1 5 16 16 7 8 21 21 3 5 1 4v7l-5 10-4 3-6 2-8-1-10-5-10-8-10-9-5-5-6-5v-2l-4-2-13-13-4-3-4-1 4 6 14 14 8 7 12 13 10 8 2 6-7 8-10 2h-11l-3-3 1-5v-14l-4-11-5-7-10-6-9-3-3-4-4-7-6-7-12-6-7-3h-12l-5 1-5-4-6-8-12-6-7-2h-20l-5-5-8-11-8-6-8-3h-13l-13 4-4 3h-2l-1 3-5-2-39-20-19-10-29-15-19-10-10-6-7-14-10-30-6-26-4-27-2-31 1-30 4-35z" fill="#062231"/>
<path transform="translate(1093,518)" d="m0 0h118v54l-1 22 6-4 13-11 11-9-1-5-12-16-4-7 18 2 54 7 4 2-7 62-1 14-6-5-13-17-5-6-5 3-14 12-9 7-11 9-16 13-14 11-13 11-9 7-11 9-10 8-11 9-16 13-14 11-13 11-9 7-11 9-16 13-14 11-11 9-16 13-11 9-3 2-6-1-64-31-37-18-23-11-16-8-9-3-33 22-20 13-33 22-14 9-20 13-5 2v-46l9-7 11-7 14-10 24-16 1-1 1-57h117l1 13v28l1 3 30 14 2 1 1-129 1-1h116l1 1v114l11-9 13-11 6-5h2z" fill="#062231"/>
<path transform="translate(1324,901)" d="m0 0 4 1v37l-2 30-4 25-7 28-6 18-10 24-8 17-9 3-59 14-13 5-15 9-17 12-3 1v2h-5l-16-17-12-13-26-26-7-8-8-8-7-8-11-12-7-8-9-10-8-10-7-6-10-4-7-1h-21l-15 2-10 4-12 9-12 11-10 8-15 7-14 3h-14l-8-4-4-5 1-9 8-16 22-32 10-11 14-9 14-6 41-13 24-6 22-3h21l27 6 15 2 13 1h13l18-2 37-7 100-20z" fill="#062231"/>
<path transform="translate(1209,684)" d="m0 0h2v225l-8 3-41 8-21 2h-20l-25-5-3-1v-137l5-5 10-8 17-14 11-9 16-13 17-14 14-11 13-11z" fill="#062232"/>
<path transform="translate(854,772)" d="m0 0 7 1 35 18 10 6 1 1 1 12v113l-2 7-8 2h-19l-16-6-65-28-8-4v-80l5-4 23-15 17-11z" fill="#062231"/>
<path transform="translate(1288,1268)" d="m0 0h38l9 14 18 27 19 29 2 4 2 1v-74l1-1h36l1 2v133l-3 1h-34l-4-4-46-69-1-1v73l-3 1h-35l-1-4v-126z" fill="#062333"/>
<path transform="translate(1141,1268)" d="m0 0h38l7 11 10 15 27 41 5 7 1-74h37l1 6v129l-4 1h-34l-8-11-13-20-28-42-1-1v73l-4 1h-34z" fill="#062332"/>
<path transform="translate(1044,1266)" d="m0 0h20l16 4 12 6 9 7 8 8 8 13 5 14 1 5v24l-3 12-5 12-8 11-9 9-14 8-11 4-10 2h-19l-16-4-14-7-12-10-10-14-5-12-3-16v-15l3-14 8-17 10-12 12-9 11-5zm8 34-10 2-6 3-6 5-6 12-1 4v19l4 11 8 9 8 4 3 1h16l12-6 6-7 4-9 1-6v-14l-4-13-9-10-10-4z" fill="#062332"/>
<path transform="translate(663,1268)" d="m0 0h37l1 1v25l-1 25 46-1v-49l1-1h37l1 4v130l-5 2h-33v-55h-47l1 4v50l-7 1h-31l-1-135z" fill="#062232"/>
<path transform="translate(1592,1267)" d="m0 0h25l15 4 10 5 9 7 7 7 8 13 4 11v3h-41l-7-9-6-4-8-2h-9l-10 4-5 4-6 12-2 10v8l3 12 4 8 7 6 7 3h14l9-4 10-11h39l1 2-5 13-4 8-11 12-9 7-11 5-13 3-9 1h-9l-17-3-14-6-9-7-8-8-8-14-5-15-1-7v-19l3-14 5-12 6-9 7-8 13-9 12-5z" fill="#062332"/>
<path transform="translate(894,1267)" d="m0 0h24l15 4 12 6 10 9 6 7 8 16 2 7-1 1h-40l-7-9-6-4-7-2h-10l-10 4-5 4-6 12-2 11 1 13 4 11 7 8 10 4h13l10-5 9-10h39l1 3-6 15-9 13-9 8-16 8-13 3-9 1h-9l-13-2-14-5-11-7-9-9-7-11-5-12-3-13v-20l4-17 7-14 7-9 9-8 16-8z" fill="#062332"/>
<path transform="translate(566,1267)" d="m0 0h25l15 4 13 7 10 9 8 11 6 13 1 6h-40l-4-4-5-6-8-4-4-1h-10l-9 3-6 5-6 11-2 11 1 15 4 10 6 7 8 4 3 1h14l9-5 9-10h39l-1 8-4 10-7 10-5 6-13 9-12 5-18 3h-10l-13-2-12-4-10-6-10-9-8-11-5-11-4-17v-18l3-15 6-14 8-11 9-8 14-8z" fill="#062332"/>
<path transform="translate(218,1268)" d="m0 0h61l14 2 12 5 9 7 6 9 4 10 1 5v14l-3 11-6 10-7 7-14 7-9 2-11 1h-20v45l-4 1h-32l-1-1zm38 30-1 1v28l1 1h18l6-2 5-5 1-3v-10l-3-6-4-3-8-1z" fill="#062232"/>
<path transform="translate(1436,1268)" d="m0 0h86l1 1v28l-1 1h-49l1 5-1 17h14l30 1v27l-1 1h-43l1 5v19l48 1 1 9v20l-3 1h-84l-1-5v-128z" fill="#062333"/>
<path transform="translate(1058,807)" d="m0 0h2v104l-1 1-13 1-7 1-24-8-10-2h-19l-20 4-19 6-5-1v-98l6 1 60 30 4-2 14-12 13-10 16-13z" fill="#062332"/>
<path transform="translate(393,1268)" d="m0 0h109v30h-36v105l-3 1h-34l-1-1v-105h-35l-1-1v-28z" fill="#062333"/>
<path transform="translate(1681,1268)" d="m0 0h108l1 1v28l-2 1h-34v105l-3 1h-34l-1-1v-105h-35l-1-1v-28z" fill="#062333"/>
<path transform="translate(340,1268)" d="m0 0h37l1 134-3 2h-35l-1-75v-40z" fill="#062232"/>
<path transform="translate(943,1171)" d="m0 0 9 1 10 6 7 8v7l-6 9-8 8-7 8-7 7-5 2h-16l-10-5-5-8v-9l5-10 12-13 8-6 5-3z" fill="#062333"/>
<path transform="translate(892,1150)" d="m0 0h12l8 3 5 4 3 7-1 10-7 11-12 14-9 4-11-1-10-4-6-4-3-6v-14l4-10 4-5 10-6 6-2z" fill="#062333"/>
<path transform="translate(840,1126)" d="m0 0h12l8 3 6 9 2 6v10l-6 8-7 5-11 3h-8l-8-4-6-9-1-10 3-9 6-7z" fill="#062434"/>
<path transform="translate(976,1198)" d="m0 0h8l8 4 5 6 1 3v12l-5 10-7 6-8 3h-9l-11-3-6-4-3-4 2-5 6-8 16-17z" fill="#062333"/>
<path transform="translate(1277,1433)" d="m0 0h10l8 4 5 8v11l-4 6-5 4-5 2h-9l-7-3-6-8-1-9 5-10 5-4zm0 5-6 5-2 5 1 8 4 5 4 2h8l5-3 3-5v-9l-4-6-4-2z" fill="#0C5477"/>
<path transform="translate(694,1433)" d="m0 0h10l8 4 5 8v11l-4 6-5 4-5 2h-10l-6-3-5-6-2-8 2-8 7-8zm0 5-6 5-2 4 1 9 4 5 4 2h8l7-6 1-2v-9l-2-4-6-4z" fill="#0A5276"/>
<path transform="translate(766,1433)" d="m0 0h12l10 2 5 6v9l-6 9 5 4 1 4-7-1-4-6-5-2-6-1v10h-6l-1-3 1-30zm5 5v14l2 1h10l4-4v-7l-3-3-2-1z" fill="#0D5478"/>
<path transform="translate(1542,1433)" d="m0 0 19 1 6 3 2 4v8l-4 6-2 4 5 4 1 4-7-1-4-6-5-2-6-1v10h-6l-1-2 1-31zm5 5v14l2 1h10l4-4v-7l-5-4z" fill="#0C5377"/>
<path transform="translate(1148,1433)" d="m0 0h10l10 1 6 5 1 2v8l-3 5-3 4 6 7v2h-6l-6-8-10-2v10h-6l-1-3 1-30zm5 5-1 5v8l3 2h10l4-3v-8l-5-4z" fill="#0A5276"/>
<path transform="translate(1349,1433)" d="m0 0 19 1 5 3 3 4v8l-3 6h-2l-1 4 6 5v3l-7-1-4-6-5-2-6-1v10h-6v-33zm5 5-1 11 1 3 3 1h10l3-4v-7l-3-3-2-1z" fill="#0B5377"/>
<path transform="translate(937,1433)" d="m0 0h5l1 4v11h18v-13l1-2h5v34h-6v-14h-13l-5-1v15h-6z" fill="#0C5377"/>
<path transform="translate(1432,1433)" d="m0 0h4l2 25 4 4h7l4-4 2-25 5 1 1 7v10l-2 10-5 6-5 1h-8l-5-2-4-5-2-9v-13z" fill="#155A7C"/>
<path transform="translate(1503,1433)" d="m0 0h4l1 20 2 7 4 2h6l4-3 1-4v-20l1-2h5l1 7v11l-2 10-4 5-6 2h-9l-5-3-3-4-2-12v-11z" fill="#0D5478"/>
<path transform="translate(1037,1433)" d="m0 0h25v5l-2 1-18-1 1 4v5l16 1v4h-16v7l1 3h17l2 2v3h-26z" fill="#085175"/>
<path transform="translate(817,1433)" d="m0 0h13l10 2 4 4 1 2v9l-5 6-3 1-14 1v9h-6zm5 5v10l1 5h12l4-3 1-5-2-5-4-2z" fill="#0E5578"/>
<path transform="translate(1309,1433)" d="m0 0h4l1 21 3 7 2 1h7l3-3 2-10 1-16h5l1 7v12l-2 9-5 6-4 1h-9l-6-3-4-6v-25z" fill="#095175"/>
<path transform="translate(1185,1433)" d="m0 0h23l1 5h-19v10h16l1 4-17 1 1 9 19 1v4l-24 1-2-1v-33z" fill="#075074"/>
<path transform="translate(726,1433)" d="m0 0h5l1 23 3 5 2 1h7l4-4 1-4v-19l1-2h5l1 14-1 11-3 6-4 3-3 1h-10l-6-4-3-5-1-4v-15z" fill="#095175"/>
<path transform="translate(463,1433)" d="m0 0h24l1 5h-20l1 9 16 1 1 4h-17l1 10 18 1 1 4-24 1-2-1z" fill="#0D5478"/>
<path transform="translate(1108,1433)" d="m0 0h4l1 22 3 6 2 1h7l4-4 1-9v-13l1-3 5 1 1 5v12l-2 10-4 5-5 2h-9l-6-3-4-7-1-16 1-8z" fill="#0A5276"/>
<path transform="translate(398,1433)" d="m0 0h25v5h-20v10h17l1 4h-18l1 10 19 1 1 4h-26l-1-4v-28z" fill="#0D5478"/>
<path transform="translate(1578,1433)" d="m0 0h24l1 5h-20v10h17l1 4h-17l-1 10 20 1 1 4-24 1-2-1z" fill="#075074"/>
<path transform="translate(603,1433)" d="m0 0h24v5h-20v10h17l1 4-17 1v9l19 1 1 4-20 1-6-1v-33z" fill="#065074"/>
<path transform="translate(545,1432)" d="m0 0 4 1 8 16 6 13 1 5h-5l-3-6-4-1h-14l-3 7h-6l1-5 13-28zm1 6-6 13-1 4 3 1h11l-1-6-5-12z" fill="#0B5276"/>
<path transform="translate(1012,1433)" d="m0 0h8l7 2 1 4-2 1-8-2-8 1v6l7 3 9 3 3 3v7l-4 5-5 2-13-1-5-3 1-4 10 3h6l3-2v-5l-9-3-8-4-2-3v-6l2-4z" fill="#0C5377"/>
<path transform="translate(911,1433)" d="m0 0h10l6 3 1 5-5-1-3-1h-9l-6 5-1 2v8l4 6 4 2h8l5-3h3l-1 5-4 3-3 1h-10l-6-3-5-6-2-7 1-8 8-9z" fill="#0A5276"/>
<path transform="translate(1082,1433)" d="m0 0h8l7 2 3 4-1 3-8-3h-9l-5 3-2 5 1 9 4 5 2 1h9l6-3 3 1-3 5-6 3h-10l-6-3-5-6-1-3v-11l5-8z" fill="#0D5478"/>
<path transform="translate(494,1432)" d="m0 0 5 2 5 11 5 13v2h2l2-6 9-20 2-2h3v5l-6 13-7 16-5 2-4-4-11-27-1-4z" fill="#085075"/>
<path transform="translate(1399,1433)" d="m0 0h24l1 4-1 2-19-1 1 9 1 2 16 1v4l-17 1v12l-3 1-3-1z" fill="#095176"/>
<path transform="translate(867,1433)" d="m0 0h27l1 4-1 1-10 1-1 28h-6v-28l-12-1v-4z" fill="#044E73"/>
<path transform="translate(1474,1433)" d="m0 0h21l1 4-5 2-7-1v29h-6l-1-28-11-1v-4z" fill="#105679"/>
<path transform="translate(646,1432)" d="m0 0 5 1 10 16h2l9-16 4-1 1 2-11 20-2 13h-5l-1-4-1-9-11-19z" fill="#0B5377"/>
<path transform="translate(571,1433)" d="m0 0h24l1 5-5 1-7-1v29l-4 1-2-1-1-28-11-1v-4z" fill="#0F5679"/>
<path transform="translate(1228,1432)" d="m0 0 6 2 9 15 4-4 7-12 4-1 1 2-12 22-1 11h-5l-2-12-9-17-2-3z" fill="#054F73"/>
<path transform="translate(433,1433)" d="m0 0 5 1v26l1 2 17 1 1 4h-25v-33z" fill="#0B5377"/>
<path transform="translate(853,1433)" d="m0 0h5l1 5v29h-6z" fill="#044E73"/>
<path transform="translate(978,1460)" d="m0 0 4 1v7l-2 7h-4v-13z" fill="#0E5578"/>
</svg>
